<mxfile host="app.diagrams.net" modified="2023-09-10T12:43:14.784Z" agent="Mozilla/5.0 (X11; Ubuntu; Linux x86_64; rv:109.0) Gecko/20100101 Firefox/117.0" etag="uC3GK4pM_SGzHq4ixjI8" version="21.6.8" type="device">
  <diagram name="Page-1" id="-kKM8zejYT_rb-ZdzzkC">
    <mxGraphModel dx="3123" dy="2425" grid="1" gridSize="10" guides="1" tooltips="1" connect="1" arrows="1" fold="1" page="1" pageScale="1" pageWidth="850" pageHeight="1100" math="0" shadow="0">
      <root>
        <mxCell id="0" />
        <mxCell id="1" parent="0" />
        <mxCell id="d3mJjCoJPCVwa2tYq_Rv-14" style="edgeStyle=orthogonalEdgeStyle;rounded=0;orthogonalLoop=1;jettySize=auto;html=1;entryX=0.5;entryY=1;entryDx=0;entryDy=0;" edge="1" parent="1" source="d3mJjCoJPCVwa2tYq_Rv-1" target="d3mJjCoJPCVwa2tYq_Rv-12">
          <mxGeometry relative="1" as="geometry">
            <Array as="points">
              <mxPoint x="-20" y="460" />
              <mxPoint x="-20" y="281" />
            </Array>
          </mxGeometry>
        </mxCell>
        <mxCell id="d3mJjCoJPCVwa2tYq_Rv-1" value="Transaction hash #1" style="rounded=1;whiteSpace=wrap;html=1;" vertex="1" parent="1">
          <mxGeometry x="190" y="433" width="120" height="60" as="geometry" />
        </mxCell>
        <mxCell id="d3mJjCoJPCVwa2tYq_Rv-10" style="edgeStyle=orthogonalEdgeStyle;rounded=0;orthogonalLoop=1;jettySize=auto;html=1;entryX=0.5;entryY=1;entryDx=0;entryDy=0;" edge="1" parent="1" source="d3mJjCoJPCVwa2tYq_Rv-2" target="d3mJjCoJPCVwa2tYq_Rv-1">
          <mxGeometry relative="1" as="geometry">
            <Array as="points">
              <mxPoint x="250" y="930" />
            </Array>
          </mxGeometry>
        </mxCell>
        <mxCell id="d3mJjCoJPCVwa2tYq_Rv-2" value="&lt;div&gt;&lt;b&gt;hash256 of...&lt;br&gt;&lt;/b&gt;&lt;/div&gt;&lt;div&gt;&lt;b&gt;&lt;br&gt;&lt;/b&gt;&lt;/div&gt;&lt;div&gt;&lt;b&gt;Seal open data:&lt;/b&gt;&lt;br&gt;&lt;/div&gt;&lt;div&gt;block merkle proof&lt;/div&gt;&lt;div&gt;transaction merkle proof&lt;/div&gt;&lt;div&gt;seal merkle proof&lt;/div&gt;&lt;div&gt;&lt;br&gt;&lt;/div&gt;&lt;div&gt;&lt;b&gt;Seal close data:&lt;/b&gt;&lt;br&gt;&lt;/div&gt;&lt;div&gt;scriptPubKey&lt;/div&gt;&lt;div&gt;scriptSig (also signs opened seals merkle root)&lt;br&gt;&lt;/div&gt;&lt;div&gt;dataCommitment&lt;/div&gt;" style="rounded=0;whiteSpace=wrap;html=1;" vertex="1" parent="1">
          <mxGeometry x="300" y="832" width="140" height="200" as="geometry" />
        </mxCell>
        <mxCell id="d3mJjCoJPCVwa2tYq_Rv-9" style="edgeStyle=orthogonalEdgeStyle;rounded=0;orthogonalLoop=1;jettySize=auto;html=1;entryX=0.5;entryY=1;entryDx=0;entryDy=0;" edge="1" parent="1" source="d3mJjCoJPCVwa2tYq_Rv-3" target="d3mJjCoJPCVwa2tYq_Rv-1">
          <mxGeometry relative="1" as="geometry">
            <Array as="points">
              <mxPoint x="250" y="573" />
            </Array>
          </mxGeometry>
        </mxCell>
        <mxCell id="d3mJjCoJPCVwa2tYq_Rv-3" value="opened seals merkle root" style="rounded=0;whiteSpace=wrap;html=1;" vertex="1" parent="1">
          <mxGeometry x="310" y="543" width="120" height="60" as="geometry" />
        </mxCell>
        <mxCell id="d3mJjCoJPCVwa2tYq_Rv-18" style="edgeStyle=orthogonalEdgeStyle;rounded=0;orthogonalLoop=1;jettySize=auto;html=1;entryX=0.5;entryY=1;entryDx=0;entryDy=0;" edge="1" parent="1" source="d3mJjCoJPCVwa2tYq_Rv-4" target="d3mJjCoJPCVwa2tYq_Rv-3">
          <mxGeometry relative="1" as="geometry">
            <Array as="points">
              <mxPoint x="370" y="663" />
            </Array>
          </mxGeometry>
        </mxCell>
        <mxCell id="d3mJjCoJPCVwa2tYq_Rv-4" value="&lt;div&gt;New seal #1&lt;/div&gt;&lt;div&gt;hash256(scriptPubKey)&lt;br&gt;&lt;/div&gt;" style="shape=process;whiteSpace=wrap;html=1;backgroundOutline=1;" vertex="1" parent="1">
          <mxGeometry x="502" y="633" width="170" height="60" as="geometry" />
        </mxCell>
        <mxCell id="d3mJjCoJPCVwa2tYq_Rv-19" style="edgeStyle=orthogonalEdgeStyle;rounded=0;orthogonalLoop=1;jettySize=auto;html=1;" edge="1" parent="1" source="d3mJjCoJPCVwa2tYq_Rv-6" target="d3mJjCoJPCVwa2tYq_Rv-3">
          <mxGeometry relative="1" as="geometry">
            <Array as="points">
              <mxPoint x="370" y="770" />
            </Array>
          </mxGeometry>
        </mxCell>
        <mxCell id="d3mJjCoJPCVwa2tYq_Rv-6" value="&lt;div&gt;New seal #M&lt;/div&gt;&lt;div&gt;hash256(scriptPubKey)&lt;br&gt;&lt;/div&gt;" style="shape=process;whiteSpace=wrap;html=1;backgroundOutline=1;" vertex="1" parent="1">
          <mxGeometry x="502" y="736" width="170" height="60" as="geometry" />
        </mxCell>
        <mxCell id="d3mJjCoJPCVwa2tYq_Rv-15" style="edgeStyle=orthogonalEdgeStyle;rounded=0;orthogonalLoop=1;jettySize=auto;html=1;entryX=0.5;entryY=1;entryDx=0;entryDy=0;" edge="1" parent="1" source="d3mJjCoJPCVwa2tYq_Rv-11" target="d3mJjCoJPCVwa2tYq_Rv-12">
          <mxGeometry relative="1" as="geometry">
            <Array as="points">
              <mxPoint x="-19" y="350" />
            </Array>
          </mxGeometry>
        </mxCell>
        <mxCell id="d3mJjCoJPCVwa2tYq_Rv-11" value="Transaction hash #N" style="rounded=1;whiteSpace=wrap;html=1;" vertex="1" parent="1">
          <mxGeometry x="190" y="325" width="120" height="60" as="geometry" />
        </mxCell>
        <mxCell id="d3mJjCoJPCVwa2tYq_Rv-22" style="edgeStyle=orthogonalEdgeStyle;rounded=0;orthogonalLoop=1;jettySize=auto;html=1;entryX=0.5;entryY=1;entryDx=0;entryDy=0;" edge="1" parent="1" source="d3mJjCoJPCVwa2tYq_Rv-12" target="d3mJjCoJPCVwa2tYq_Rv-20">
          <mxGeometry relative="1" as="geometry">
            <Array as="points">
              <mxPoint x="-128" y="251" />
            </Array>
          </mxGeometry>
        </mxCell>
        <mxCell id="d3mJjCoJPCVwa2tYq_Rv-12" value="txs merkle root" style="rounded=0;whiteSpace=wrap;html=1;" vertex="1" parent="1">
          <mxGeometry x="-79" y="221" width="120" height="60" as="geometry" />
        </mxCell>
        <mxCell id="d3mJjCoJPCVwa2tYq_Rv-21" style="edgeStyle=orthogonalEdgeStyle;rounded=0;orthogonalLoop=1;jettySize=auto;html=1;entryX=0.5;entryY=1;entryDx=0;entryDy=0;" edge="1" parent="1" source="d3mJjCoJPCVwa2tYq_Rv-16" target="d3mJjCoJPCVwa2tYq_Rv-20">
          <mxGeometry relative="1" as="geometry">
            <Array as="points">
              <mxPoint x="-128" y="-30" />
            </Array>
          </mxGeometry>
        </mxCell>
        <mxCell id="d3mJjCoJPCVwa2tYq_Rv-16" value="&lt;div&gt;blocks merkle root&lt;/div&gt;" style="rounded=0;whiteSpace=wrap;html=1;" vertex="1" parent="1">
          <mxGeometry x="-79" y="-60" width="120" height="60" as="geometry" />
        </mxCell>
        <mxCell id="d3mJjCoJPCVwa2tYq_Rv-31" style="edgeStyle=orthogonalEdgeStyle;rounded=0;orthogonalLoop=1;jettySize=auto;html=1;entryX=0.5;entryY=1;entryDx=0;entryDy=0;" edge="1" parent="1" source="d3mJjCoJPCVwa2tYq_Rv-20" target="d3mJjCoJPCVwa2tYq_Rv-28">
          <mxGeometry relative="1" as="geometry">
            <Array as="points">
              <mxPoint x="-237" y="-140" />
            </Array>
          </mxGeometry>
        </mxCell>
        <mxCell id="d3mJjCoJPCVwa2tYq_Rv-20" value="blocks+txs merkle root" style="rounded=0;whiteSpace=wrap;html=1;" vertex="1" parent="1">
          <mxGeometry x="-189" y="-170" width="120" height="60" as="geometry" />
        </mxCell>
        <mxCell id="d3mJjCoJPCVwa2tYq_Rv-30" style="edgeStyle=orthogonalEdgeStyle;rounded=0;orthogonalLoop=1;jettySize=auto;html=1;entryX=0.5;entryY=1;entryDx=0;entryDy=0;" edge="1" parent="1" source="d3mJjCoJPCVwa2tYq_Rv-23" target="d3mJjCoJPCVwa2tYq_Rv-28">
          <mxGeometry relative="1" as="geometry">
            <Array as="points">
              <mxPoint x="-237" y="-440" />
            </Array>
          </mxGeometry>
        </mxCell>
        <mxCell id="d3mJjCoJPCVwa2tYq_Rv-23" value="header+block body merkle root" style="rounded=0;whiteSpace=wrap;html=1;" vertex="1" parent="1">
          <mxGeometry x="-189" y="-470" width="120" height="60" as="geometry" />
        </mxCell>
        <mxCell id="d3mJjCoJPCVwa2tYq_Rv-26" style="edgeStyle=orthogonalEdgeStyle;rounded=0;orthogonalLoop=1;jettySize=auto;html=1;entryX=0.5;entryY=1;entryDx=0;entryDy=0;" edge="1" parent="1" source="d3mJjCoJPCVwa2tYq_Rv-24" target="d3mJjCoJPCVwa2tYq_Rv-23">
          <mxGeometry relative="1" as="geometry">
            <Array as="points">
              <mxPoint x="-128" y="-327" />
            </Array>
          </mxGeometry>
        </mxCell>
        <mxCell id="d3mJjCoJPCVwa2tYq_Rv-24" value="&lt;div&gt;&lt;b&gt;hash256 of...&lt;/b&gt;&lt;br&gt;&lt;/div&gt;&lt;div&gt;block timestamp&lt;/div&gt;&lt;div&gt;mining nonce&lt;/div&gt;&lt;div&gt;tlv data&lt;br&gt;&lt;/div&gt;" style="rounded=0;whiteSpace=wrap;html=1;" vertex="1" parent="1">
          <mxGeometry x="-79" y="-357" width="230" height="60" as="geometry" />
        </mxCell>
        <mxCell id="d3mJjCoJPCVwa2tYq_Rv-27" style="edgeStyle=orthogonalEdgeStyle;rounded=0;orthogonalLoop=1;jettySize=auto;html=1;entryX=0.5;entryY=1;entryDx=0;entryDy=0;" edge="1" parent="1" source="d3mJjCoJPCVwa2tYq_Rv-25" target="d3mJjCoJPCVwa2tYq_Rv-23">
          <mxGeometry relative="1" as="geometry">
            <Array as="points">
              <mxPoint x="-128" y="-250" />
            </Array>
          </mxGeometry>
        </mxCell>
        <mxCell id="d3mJjCoJPCVwa2tYq_Rv-25" value="&lt;div&gt;&lt;b&gt;hash256 of....&lt;/b&gt;&lt;/div&gt;&lt;div&gt;array of sequences of closed seals&lt;br&gt;&lt;/div&gt;&lt;div&gt;STARK proof&lt;br&gt;&lt;/div&gt;" style="rounded=0;whiteSpace=wrap;html=1;" vertex="1" parent="1">
          <mxGeometry x="-79" y="-277" width="230" height="60" as="geometry" />
        </mxCell>
        <mxCell id="d3mJjCoJPCVwa2tYq_Rv-28" value="&lt;div&gt;Block hash&lt;/div&gt;&lt;div&gt;height: B&lt;br&gt;&lt;/div&gt;" style="rounded=1;whiteSpace=wrap;html=1;" vertex="1" parent="1">
          <mxGeometry x="-298" y="-570" width="120" height="60" as="geometry" />
        </mxCell>
        <mxCell id="d3mJjCoJPCVwa2tYq_Rv-36" style="edgeStyle=orthogonalEdgeStyle;rounded=0;orthogonalLoop=1;jettySize=auto;html=1;entryX=0.5;entryY=1;entryDx=0;entryDy=0;" edge="1" parent="1" target="d3mJjCoJPCVwa2tYq_Rv-16">
          <mxGeometry relative="1" as="geometry">
            <mxPoint x="139" as="targetPoint" />
            <mxPoint x="190" y="60.05882352941171" as="sourcePoint" />
          </mxGeometry>
        </mxCell>
        <mxCell id="d3mJjCoJPCVwa2tYq_Rv-33" value="&lt;div&gt;Block hash&lt;/div&gt;&lt;div&gt;height: B-1&lt;br&gt;&lt;/div&gt;" style="rounded=1;whiteSpace=wrap;html=1;" vertex="1" parent="1">
          <mxGeometry x="191" y="30" width="120" height="60" as="geometry" />
        </mxCell>
        <mxCell id="d3mJjCoJPCVwa2tYq_Rv-35" style="edgeStyle=orthogonalEdgeStyle;rounded=0;orthogonalLoop=1;jettySize=auto;html=1;entryX=0.5;entryY=1;entryDx=0;entryDy=0;" edge="1" parent="1" target="d3mJjCoJPCVwa2tYq_Rv-16">
          <mxGeometry relative="1" as="geometry">
            <mxPoint x="190" y="170.0588235294117" as="sourcePoint" />
            <Array as="points">
              <mxPoint x="-20" y="170" />
              <mxPoint x="-20" />
            </Array>
          </mxGeometry>
        </mxCell>
        <mxCell id="d3mJjCoJPCVwa2tYq_Rv-34" value="&lt;div&gt;Block hash&lt;/div&gt;&lt;div&gt;height: 0&lt;br&gt;&lt;/div&gt;" style="rounded=1;whiteSpace=wrap;html=1;" vertex="1" parent="1">
          <mxGeometry x="191" y="140" width="120" height="60" as="geometry" />
        </mxCell>
        <mxCell id="d3mJjCoJPCVwa2tYq_Rv-37" value="" style="endArrow=none;dashed=1;html=1;dashPattern=1 3;strokeWidth=2;rounded=0;" edge="1" parent="1">
          <mxGeometry width="50" height="50" relative="1" as="geometry">
            <mxPoint x="250" y="100" as="sourcePoint" />
            <mxPoint x="250" y="130" as="targetPoint" />
          </mxGeometry>
        </mxCell>
        <mxCell id="d3mJjCoJPCVwa2tYq_Rv-39" value="" style="endArrow=none;dashed=1;html=1;dashPattern=1 3;strokeWidth=2;rounded=0;" edge="1" parent="1">
          <mxGeometry width="50" height="50" relative="1" as="geometry">
            <mxPoint x="249.76" y="396" as="sourcePoint" />
            <mxPoint x="249.76" y="426" as="targetPoint" />
          </mxGeometry>
        </mxCell>
        <mxCell id="d3mJjCoJPCVwa2tYq_Rv-41" value="" style="endArrow=none;dashed=1;html=1;dashPattern=1 3;strokeWidth=2;rounded=0;" edge="1" parent="1">
          <mxGeometry width="50" height="50" relative="1" as="geometry">
            <mxPoint x="586.66" y="700" as="sourcePoint" />
            <mxPoint x="586.66" y="730" as="targetPoint" />
          </mxGeometry>
        </mxCell>
        <mxCell id="d3mJjCoJPCVwa2tYq_Rv-44" value="&lt;div&gt;Block data&lt;/div&gt;" style="swimlane;horizontal=0;whiteSpace=wrap;html=1;dashed=1;dashPattern=8 8;" vertex="1" parent="1">
          <mxGeometry x="-338" y="-490" width="508" height="810" as="geometry">
            <mxRectangle x="-338" y="-490" width="40" height="150" as="alternateBounds" />
          </mxGeometry>
        </mxCell>
        <mxCell id="d3mJjCoJPCVwa2tYq_Rv-46" value="Transaction data" style="swimlane;horizontal=0;whiteSpace=wrap;html=1;" vertex="1" parent="1">
          <mxGeometry x="170" y="520" width="300" height="540" as="geometry" />
        </mxCell>
      </root>
    </mxGraphModel>
  </diagram>
</mxfile>
